<svg width="107" height="22" viewBox="0 0 107 22" fill="none" xmlns="http://www.w3.org/2000/svg">
<path d="M7.71094 9V11.5H0.484375V9H7.71094ZM2.125 6.125H5.45313V17.3125C5.45313 17.6198 5.5 17.8594 5.59375 18.0312C5.6875 18.1979 5.81771 18.3151 5.98438 18.3828C6.15625 18.4505 6.35417 18.4844 6.57813 18.4844C6.73438 18.4844 6.89063 18.4714 7.04688 18.4453C7.20312 18.4141 7.32292 18.3906 7.40625 18.375L7.92969 20.8516C7.76302 20.9036 7.52865 20.9635 7.22656 21.0313C6.92448 21.1042 6.55729 21.1484 6.125 21.1641C5.32292 21.1953 4.61979 21.0885 4.01563 20.8437C3.41667 20.599 2.95052 20.2187 2.61719 19.7031C2.28385 19.1875 2.11979 18.5365 2.125 17.75V6.125ZM9.87891 21V9H13.1055V11.0937H13.2305C13.4492 10.349 13.8164 9.78646 14.332 9.40625C14.8477 9.02083 15.4414 8.82812 16.1133 8.82812C16.2799 8.82812 16.4596 8.83854 16.6523 8.85937C16.8451 8.88021 17.0143 8.90885 17.1602 8.94531V11.8984C17.0039 11.8516 16.7878 11.8099 16.5117 11.7734C16.2357 11.737 15.9831 11.7188 15.7539 11.7188C15.2643 11.7188 14.8268 11.8255 14.4414 12.0391C14.0612 12.2474 13.7591 12.5391 13.5352 12.9141C13.3164 13.2891 13.207 13.7214 13.207 14.2109V21H9.87891ZM21.959 21.2266C21.1934 21.2266 20.5111 21.0938 19.9121 20.8281C19.3132 20.5573 18.8392 20.1589 18.4902 19.6328C18.1465 19.1016 17.9746 18.4401 17.9746 17.6484C17.9746 16.9818 18.097 16.4219 18.3418 15.9687C18.5866 15.5156 18.9199 15.151 19.3418 14.875C19.7637 14.599 20.2428 14.3906 20.7793 14.25C21.321 14.1094 21.8887 14.0104 22.4824 13.9531C23.1803 13.8802 23.7428 13.8125 24.1699 13.75C24.597 13.6823 24.9069 13.5833 25.0996 13.4531C25.2923 13.3229 25.3887 13.1302 25.3887 12.875V12.8281C25.3887 12.3333 25.2324 11.9505 24.9199 11.6797C24.6126 11.4089 24.1751 11.2734 23.6074 11.2734C23.0085 11.2734 22.5319 11.4062 22.1777 11.6719C21.8236 11.9323 21.5892 12.2604 21.4746 12.6562L18.3965 12.4062C18.5527 11.6771 18.86 11.0469 19.3184 10.5156C19.7767 9.97917 20.3678 9.56771 21.0918 9.28125C21.821 8.98958 22.6647 8.84375 23.623 8.84375C24.2897 8.84375 24.9277 8.92187 25.5371 9.07812C26.1517 9.23437 26.696 9.47656 27.1699 9.80469C27.6491 10.1328 28.0267 10.5547 28.3027 11.0703C28.5788 11.5807 28.7168 12.1927 28.7168 12.9062V21H25.5605V19.3359H25.4668C25.2741 19.7109 25.0163 20.0417 24.6934 20.3281C24.3704 20.6094 23.9824 20.8307 23.5293 20.9922C23.0762 21.1484 22.5527 21.2266 21.959 21.2266ZM22.9121 18.9297C23.4017 18.9297 23.834 18.8333 24.209 18.6406C24.584 18.4427 24.8783 18.1771 25.0918 17.8438C25.3053 17.5104 25.4121 17.1328 25.4121 16.7109V15.4375C25.3079 15.5052 25.1647 15.5677 24.9824 15.625C24.8053 15.6771 24.6048 15.7266 24.3809 15.7734C24.1569 15.8151 23.9329 15.8542 23.709 15.8906C23.485 15.9219 23.2819 15.9505 23.0996 15.9766C22.709 16.0339 22.3678 16.125 22.0762 16.25C21.7845 16.375 21.5579 16.5443 21.3965 16.7578C21.235 16.9661 21.1543 17.2266 21.1543 17.5391C21.1543 17.9922 21.3184 18.3385 21.6465 18.5781C21.9798 18.8125 22.4017 18.9297 22.9121 18.9297ZM31.2988 21V9H34.627V21H31.2988ZM32.9707 7.45312C32.4759 7.45312 32.0514 7.28906 31.6973 6.96094C31.3483 6.6276 31.1738 6.22917 31.1738 5.76562C31.1738 5.30729 31.3483 4.91406 31.6973 4.58594C32.0514 4.2526 32.4759 4.08594 32.9707 4.08594C33.4655 4.08594 33.8874 4.2526 34.2363 4.58594C34.5905 4.91406 34.7676 5.30729 34.7676 5.76562C34.7676 6.22917 34.5905 6.6276 34.2363 6.96094C33.8874 7.28906 33.4655 7.45312 32.9707 7.45312ZM40.6211 14.0625V21H37.293V9H40.4648V11.1172H40.6055C40.8711 10.4193 41.3164 9.86719 41.9414 9.46094C42.5664 9.04948 43.3242 8.84375 44.2148 8.84375C45.0482 8.84375 45.7747 9.02604 46.3945 9.39062C47.0143 9.75521 47.4961 10.276 47.8398 10.9531C48.1836 11.625 48.3555 12.4271 48.3555 13.3594V21H45.0273V13.9531C45.0326 13.2187 44.8451 12.6458 44.4648 12.2344C44.0846 11.8177 43.5612 11.6094 42.8945 11.6094C42.4466 11.6094 42.0508 11.7057 41.707 11.8984C41.3685 12.0911 41.1029 12.3724 40.9102 12.7422C40.7227 13.1068 40.6263 13.5469 40.6211 14.0625ZM50.9785 21V9H54.1504V11.1172H54.291C54.541 10.4141 54.9577 9.85937 55.541 9.45312C56.1243 9.04687 56.8223 8.84375 57.6348 8.84375C58.4577 8.84375 59.1582 9.04948 59.7363 9.46094C60.3145 9.86719 60.6999 10.4193 60.8926 11.1172H61.0176C61.2624 10.4297 61.7051 9.88021 62.3457 9.46875C62.9915 9.05208 63.7546 8.84375 64.6348 8.84375C65.7546 8.84375 66.6634 9.20052 67.3613 9.91406C68.0645 10.6224 68.416 11.6276 68.416 12.9297V21H65.0957V13.5859C65.0957 12.9193 64.9186 12.4193 64.5645 12.0859C64.2103 11.7526 63.7676 11.5859 63.2363 11.5859C62.6322 11.5859 62.1608 11.7786 61.8223 12.1641C61.4837 12.5443 61.3145 13.0469 61.3145 13.6719V21H58.0879V13.5156C58.0879 12.9271 57.9186 12.4583 57.5801 12.1094C57.2467 11.7604 56.8066 11.5859 56.2598 11.5859C55.89 11.5859 55.5566 11.6797 55.2598 11.8672C54.9681 12.0495 54.7363 12.3073 54.5645 12.6406C54.3926 12.9687 54.3066 13.3542 54.3066 13.7969V21H50.9785ZM76.5137 21.2344C75.2793 21.2344 74.2168 20.9844 73.3262 20.4844C72.4408 19.9792 71.7585 19.2656 71.2793 18.3437C70.8001 17.4167 70.5605 16.3203 70.5605 15.0547C70.5605 13.8203 70.8001 12.737 71.2793 11.8047C71.7585 10.8724 72.4329 10.1458 73.3027 9.625C74.1777 9.10417 75.2038 8.84375 76.3809 8.84375C77.1725 8.84375 77.9095 8.97135 78.5918 9.22656C79.2793 9.47656 79.8783 9.85417 80.3887 10.3594C80.9043 10.8646 81.3053 11.5 81.5918 12.2656C81.8783 13.026 82.0215 13.9167 82.0215 14.9375V15.8516H71.8887V13.7891H78.8887C78.8887 13.3099 78.7845 12.8854 78.5762 12.5156C78.3678 12.1458 78.0788 11.8568 77.709 11.6484C77.3444 11.4349 76.9199 11.3281 76.4355 11.3281C75.9303 11.3281 75.4824 11.4453 75.0918 11.6797C74.7064 11.9089 74.4043 12.2187 74.1855 12.6094C73.9668 12.9948 73.8548 13.4245 73.8496 13.8984V15.8594C73.8496 16.4531 73.959 16.9661 74.1777 17.3984C74.4017 17.8307 74.7168 18.1641 75.123 18.3984C75.5293 18.6328 76.0111 18.75 76.5684 18.75C76.9382 18.75 77.2767 18.6979 77.584 18.5938C77.8913 18.4896 78.1543 18.3333 78.373 18.125C78.5918 17.9167 78.7585 17.6615 78.873 17.3594L81.9512 17.5625C81.7949 18.3021 81.4746 18.9479 80.9902 19.5C80.5111 20.0469 79.8913 20.474 79.1309 20.7813C78.3757 21.0833 77.5033 21.2344 76.5137 21.2344Z" fill="#89C5CC"/>
</svg>
